<svg width="1024" height="1024" viewBox="0 0 1024 1024" xmlns="http://www.w3.org/2000/svg"><rect width="1024" height="1024" fill="#141312"/><g transform="translate(291.32,575.71)"><path d="M65.82 1.75Q59.71 1.75 56.82-1.57Q53.94-4.90 53.94-10.14Q53.94-10.84 53.98-12.15Q54.02-13.46 54.29-14.86L56.82-28.93L62.50-43.36L62.76-53.94L82.52-127.71L68.10-127.71L68.10-131.12L97.47-131.12L64.95-9.09Q64.60-7.69 64.60-6.29Q64.60-4.90 65.39-3.76Q66.17-2.62 68.18-2.62Q72.03-2.62 75.35-5.24Q78.67-7.87 81.91-13.42Q85.14-18.97 88.64-27.89L91.96-26.75Q88.20-16.70 84.44-10.40Q80.69-4.11 76.18-1.18Q71.68 1.75 65.82 1.75M27.89 1.75Q16.52 1.75 11.10-5.90Q5.68-13.55 5.68-26.66Q5.68-36.71 9.48-46.55Q13.29-56.38 19.54-64.43Q25.79-72.47 33.31-77.32Q40.82-82.17 48.25-82.17Q54.64-82.17 58.26-78.76Q61.89-75.35 63.42-69.63Q64.95-63.90 64.95-56.91Q64.95-50.88 63.68-44.19Q62.42-37.50 60.05-30.95Q57.69-24.39 54.37-18.49Q51.05-12.59 46.90-8.04Q42.75-3.50 37.98-0.87Q33.22 1.75 27.89 1.75M30.42-3.32Q35.32-3.32 39.95-6.60Q44.58-9.88 48.60-15.39Q52.62-20.89 55.68-27.84Q58.74-34.79 60.45-42.22Q62.15-49.65 62.15-56.65Q62.15-63.03 60.93-67.75Q59.71-72.47 57.08-75.05Q54.46-77.63 50.18-77.63Q45.63-77.63 41.17-73.87Q36.71-70.11 32.74-63.90Q28.76-57.69 25.66-50.09Q22.55-42.48 20.81-34.70Q19.06-26.92 19.06-20.11Q19.06-11.80 21.94-7.56Q24.83-3.32 30.42-3.32" fill="#F4F1EA"/><path d="M113.64 0L99.83 0L118.97-77.01L105.60-77.01L105.60-80.42L132.87-80.42L113.64 0M119.93-26.66L117.92-26.66Q119.50-33.74 121.95-41.44Q124.39-49.13 127.63-56.34Q130.86-63.55 134.84-69.36Q138.82-75.18 143.41-78.63Q148-82.08 153.07-82.08Q158.40-82.08 161.41-79.20Q164.43-76.31 164.43-71.94Q164.43-67.92 162.16-65.13Q159.88-62.33 155.86-62.33Q152.10-62.33 149.61-64.60Q147.12-66.87 147.12-70.54Q147.12-74.04 149.48-76.49Q151.84-78.94 155.95-78.94Q159.62-78.94 161.94-77.10Q164.25-75.27 164.25-71.94L160.85-71.94Q160.85-74.74 158.88-76.75Q156.91-78.76 153.24-78.76Q148.52-78.76 144.19-75.40Q139.87-72.03 136.15-66.39Q132.44-60.75 129.33-53.89Q126.23-47.03 123.82-39.95Q121.42-32.87 119.93-26.66" fill="#F4F1EA"/><path d="M196.42 1.75Q185.06 1.75 179.68-5.90Q174.31-13.55 174.31-26.66Q174.31-36.71 178.11-46.55Q181.91-56.38 188.16-64.43Q194.41-72.47 201.93-77.32Q209.45-82.17 216.88-82.17Q223.35-82.17 226.98-78.67Q230.60-75.18 232.09-69.45Q233.58-63.73 233.58-56.91Q233.58-50.88 232.31-44.19Q231.04-37.50 228.64-30.95Q226.23-24.39 222.91-18.49Q219.59-12.59 215.44-8.04Q211.28-3.50 206.52-0.87Q201.76 1.75 196.42 1.75M199.05-3.32Q203.94-3.32 208.57-6.60Q213.21-9.88 217.23-15.39Q221.25-20.89 224.31-27.84Q227.37-34.79 229.07-42.22Q230.78-49.65 230.78-56.65Q230.78-63.03 229.55-67.75Q228.33-72.47 225.71-75.05Q223.09-77.63 218.80-77.63Q214.26-77.63 209.76-73.91Q205.25-70.20 201.28-63.94Q197.30-57.69 194.19-50.13Q191.09-42.57 189.34-34.75Q187.60-26.92 187.60-20.11Q187.60-11.80 190.65-7.56Q193.71-3.32 199.05-3.32M234.45 1.75Q228.33 1.75 225.45-1.57Q222.56-4.90 222.56-10.14Q222.56-11.63 222.65-12.81Q222.74-13.99 222.91-14.86L225.45-28.93L229.90-42.48L232.44-58.39L237.77-80.42L252.55-80.42L233.58-9.09Q233.23-7.78 233.23-6.29Q233.23-4.81 234.06-3.72Q234.89-2.62 236.81-2.62Q240.66-2.62 243.98-5.24Q247.30-7.87 250.53-13.42Q253.77-18.97 257.27-27.89L260.59-26.75Q256.83-16.70 253.03-10.40Q249.22-4.11 244.77-1.18Q240.31 1.75 234.45 1.75" fill="#F4F1EA"/><path d="M274.66 43.71L260.67 43.71L293.02-77.01L281.31-77.01L281.31-80.42L305.61-80.42L298.70-50.96L294.77-37.24L293.72-28.32L274.66 43.71M289.87 43.71L248 43.71L248 40.30L289.87 40.30L289.87 43.71M306.13-2.80Q310.68-2.80 315.18-6.51Q319.68-10.23 323.66-16.48Q327.64-22.73 330.74-30.38Q333.84-38.03 335.59-45.94Q337.34-53.85 337.34-60.75Q337.34-68.45 334.50-72.77Q331.66-77.10 325.97-77.10Q321.17-77.10 316.49-73.82Q311.81-70.54 307.79-65.04Q303.77-59.53 300.71-52.58Q297.65-45.63 295.95-38.20Q294.24-30.77 294.24-23.78Q294.24-14.25 297.08-8.52Q299.92-2.80 306.13-2.80M308.14 1.75Q301.67 1.75 298.05-1.75Q294.42-5.24 292.93-11.01Q291.45-16.78 291.45-23.51Q291.45-29.55 292.71-36.23Q293.98-42.92 296.34-49.48Q298.70-56.03 302.02-61.93Q305.34-67.83 309.50-72.38Q313.65-76.93 318.46-79.55Q323.26-82.17 328.51-82.17Q339.87-82.17 345.29-74.52Q350.71-66.87 350.71-53.76Q350.71-43.71 346.91-33.87Q343.11-24.04 336.81-16Q330.52-7.95 323-3.10Q315.48 1.75 308.14 1.75" fill="#F4F1EA"/><path d="M392.67 1.75Q384.28 1.75 378.51-1.79Q372.74-5.33 369.77-11.63Q366.80-17.92 366.80-26.22Q366.80-36.28 370.47-46.20Q374.14-56.12 380.78-64.25Q387.43-72.38 396.39-77.28Q405.35-82.17 415.84-82.17Q425.28-82.17 430.48-77.49Q435.68-72.82 435.68-65.91Q435.68-58.74 430.79-53.11Q425.89-47.47 417.72-43.53Q409.54-39.60 399.71-37.28Q389.88-34.97 379.91-34.27L379.91-37.24Q387.34-37.76 393.90-39.21Q400.45-40.65 405.74-43.10Q411.03-45.54 414.83-49.13Q418.64-52.71 420.69-57.48Q422.74-62.24 422.74-68.36Q422.74-72.47 420.87-75.57Q418.99-78.67 414.61-78.67Q409.63-78.67 405.13-75.88Q400.63-73.08 396.74-68.23Q392.85-63.38 389.70-57.26Q386.55-51.14 384.33-44.36Q382.10-37.59 380.92-30.90Q379.74-24.21 379.74-18.36Q379.74-9.62 383.80-6.16Q387.87-2.71 393.98-2.71Q400.98-2.71 406.79-5.51Q412.60-8.30 417.32-13.20Q422.05-18.10 425.63-24.39L428.69-22.55Q425.28-15.91 420.08-10.40Q414.88-4.90 408.01-1.57Q401.15 1.75 392.67 1.75" fill="#F4F1EA"/></g></svg>
