<svg width="1024" height="1024" viewBox="0 0 1024 1024" xmlns="http://www.w3.org/2000/svg"><g transform="translate(327.24,568.59)"><path d="M55.11 1.46Q49.99 1.46 47.57-1.32Q45.16-4.10 45.16-8.49Q45.16-9.08 45.19-10.17Q45.23-11.27 45.45-12.44L47.57-24.22L52.33-36.30L52.55-45.16L69.09-106.92L57.01-106.92L57.01-109.78L81.60-109.78L54.38-7.61Q54.08-6.44 54.08-5.27Q54.08-4.10 54.74-3.15Q55.40-2.20 57.08-2.20Q60.30-2.20 63.09-4.39Q65.87-6.59 68.57-11.23Q71.28-15.88 74.21-23.35L76.99-22.39Q73.84-13.98 70.70-8.71Q67.55-3.44 63.78-0.99Q60.01 1.46 55.11 1.46M23.35 1.46Q13.83 1.46 9.29-4.94Q4.76-11.34 4.76-22.32Q4.76-30.74 7.94-38.97Q11.12-47.20 16.36-53.94Q21.59-60.67 27.88-64.73Q34.18-68.79 40.40-68.79Q45.74-68.79 48.78-65.94Q51.82-63.09 53.10-58.29Q54.38-53.50 54.38-47.64Q54.38-42.59 53.32-37Q52.25-31.40 50.28-25.91Q48.30-20.42 45.52-15.48Q42.74-10.54 39.26-6.73Q35.79-2.93 31.80-0.73Q27.81 1.46 23.35 1.46M25.47-2.78Q29.57-2.78 33.45-5.53Q37.32-8.27 40.69-12.88Q44.06-17.49 46.62-23.31Q49.18-29.13 50.61-35.35Q52.03-41.57 52.03-47.42Q52.03-52.77 51.01-56.72Q49.99-60.67 47.79-62.83Q45.59-64.99 42.01-64.99Q38.20-64.99 34.47-61.84Q30.74-58.69 27.41-53.50Q24.08-48.30 21.48-41.94Q18.88-35.57 17.42-29.05Q15.95-22.54 15.95-16.83Q15.95-9.88 18.37-6.33Q20.78-2.78 25.47-2.78" fill="#F4F1EA"/><path d="M95.14 0L83.58 0L99.61-64.48L88.41-64.48L88.41-67.33L111.24-67.33L95.14 0M100.41-22.32L98.73-22.32Q100.04-28.25 102.09-34.69Q104.14-41.13 106.85-47.17Q109.56-53.21 112.89-58.07Q116.22-62.94 120.06-65.83Q123.90-68.72 128.15-68.72Q132.61-68.72 135.14-66.31Q137.66-63.89 137.66-60.23Q137.66-56.87 135.76-54.52Q133.86-52.18 130.49-52.18Q127.34-52.18 125.26-54.08Q123.17-55.99 123.17-59.06Q123.17-61.99 125.15-64.04Q127.12-66.09 130.56-66.09Q133.64-66.09 135.58-64.55Q137.52-63.01 137.52-60.23L134.66-60.23Q134.66-62.57 133.01-64.26Q131.37-65.94 128.29-65.94Q124.34-65.94 120.72-63.12Q117.10-60.30 113.99-55.58Q110.88-50.86 108.28-45.12Q105.68-39.37 103.67-33.45Q101.65-27.52 100.41-22.32" fill="#F4F1EA"/><path d="M164.45 1.46Q154.93 1.46 150.43-4.94Q145.93-11.34 145.93-22.32Q145.93-30.74 149.12-38.97Q152.30-47.20 157.53-53.94Q162.76-60.67 169.06-64.73Q175.35-68.79 181.57-68.79Q186.99-68.79 190.03-65.87Q193.06-62.94 194.31-58.15Q195.55-53.35 195.55-47.64Q195.55-42.59 194.49-37Q193.43-31.40 191.42-25.91Q189.40-20.42 186.62-15.48Q183.84-10.54 180.37-6.73Q176.89-2.93 172.90-0.73Q168.91 1.46 164.45 1.46M166.64-2.78Q170.74-2.78 174.62-5.53Q178.50-8.27 181.87-12.88Q185.23-17.49 187.79-23.31Q190.36-29.13 191.78-35.35Q193.21-41.57 193.21-47.42Q193.21-52.77 192.19-56.72Q191.16-60.67 188.97-62.83Q186.77-64.99 183.18-64.99Q179.38-64.99 175.61-61.88Q171.84-58.77 168.51-53.54Q165.18-48.30 162.58-41.97Q159.98-35.64 158.52-29.09Q157.06-22.54 157.06-16.83Q157.06-9.88 159.62-6.33Q162.18-2.78 166.64-2.78M196.28 1.46Q191.16 1.46 188.75-1.32Q186.33-4.10 186.33-8.49Q186.33-9.73 186.40-10.72Q186.48-11.71 186.62-12.44L188.75-24.22L192.48-35.57L194.60-48.89L199.06-67.33L211.43-67.33L195.55-7.61Q195.26-6.51 195.26-5.27Q195.26-4.03 195.95-3.11Q196.65-2.20 198.26-2.20Q201.48-2.20 204.26-4.39Q207.04-6.59 209.75-11.23Q212.46-15.88 215.39-23.35L218.17-22.39Q215.02-13.98 211.84-8.71Q208.65-3.44 204.92-0.99Q201.19 1.46 196.28 1.46" fill="#F4F1EA"/><path d="M229.95 36.59L218.24 36.59L245.32-64.48L235.51-64.48L235.51-67.33L255.86-67.33L250.08-42.67L246.78-31.18L245.90-23.71L229.95 36.59M242.68 36.59L207.63 36.59L207.63 33.74L242.68 33.74L242.68 36.59M256.30-2.34Q260.10-2.34 263.87-5.45Q267.64-8.56 270.97-13.80Q274.30-19.03 276.90-25.43Q279.50-31.84 280.96-38.46Q282.42-45.08 282.42-50.86Q282.42-57.30 280.04-60.93Q277.67-64.55 272.91-64.55Q268.88-64.55 264.97-61.81Q261.05-59.06 257.69-54.45Q254.32-49.84 251.76-44.02Q249.20-38.20 247.77-31.98Q246.34-25.76 246.34-19.91Q246.34-11.93 248.72-7.14Q251.10-2.34 256.30-2.34M257.98 1.46Q252.56 1.46 249.53-1.46Q246.49-4.39 245.24-9.22Q244-14.05 244-19.69Q244-24.74 245.06-30.34Q246.12-35.93 248.10-41.42Q250.08-46.91 252.86-51.85Q255.64-56.79 259.11-60.60Q262.59-64.40 266.62-66.60Q270.64-68.79 275.03-68.79Q284.55-68.79 289.08-62.39Q293.62-55.99 293.62-45.01Q293.62-36.59 290.44-28.36Q287.25-20.13 281.98-13.39Q276.71-6.66 270.42-2.60Q264.13 1.46 257.98 1.46" fill="#F4F1EA"/><path d="M328.75 1.46Q321.72 1.46 316.89-1.50Q312.06-4.46 309.58-9.73Q307.09-15 307.09-21.96Q307.09-30.37 310.16-38.68Q313.23-46.99 318.80-53.79Q324.36-60.60 331.86-64.70Q339.36-68.79 348.14-68.79Q356.05-68.79 360.40-64.88Q364.76-60.96 364.76-55.18Q364.76-49.18 360.66-44.46Q356.56-39.74 349.72-36.45Q342.87-33.15 334.64-31.21Q326.41-29.27 318.06-28.69L318.06-31.18Q324.29-31.62 329.77-32.82Q335.26-34.03 339.69-36.08Q344.12-38.13 347.30-41.13Q350.49-44.13 352.21-48.12Q353.93-52.11 353.93-57.23Q353.93-60.67 352.35-63.27Q350.78-65.87 347.12-65.87Q342.95-65.87 339.18-63.53Q335.41-61.18 332.15-57.12Q328.90-53.06 326.26-47.94Q323.63-42.81 321.76-37.14Q319.89-31.47 318.91-25.87Q317.92-20.27 317.92-15.37Q317.92-8.05 321.32-5.16Q324.72-2.27 329.85-2.27Q335.70-2.27 340.57-4.61Q345.44-6.95 349.39-11.05Q353.34-15.15 356.34-20.42L358.90-18.88Q356.05-13.32 351.69-8.71Q347.34-4.10 341.59-1.32Q335.85 1.46 328.75 1.46" fill="#F4F1EA"/></g></svg>
