<svg width="2732" height="2732" viewBox="0 0 2732 2732" xmlns="http://www.w3.org/2000/svg"><rect width="2732" height="2732" fill="#141312"/><g transform="translate(1006.75,1471.15)"><path d="M107.16 2.85Q97.19 2.85 92.50-2.56Q87.80-7.97 87.80-16.51Q87.80-17.65 87.87-19.78Q87.94-21.92 88.37-24.19L92.50-47.10L101.75-70.58L102.18-87.80L134.34-207.91L110.86-207.91L110.86-213.46L158.67-213.46L105.73-14.80Q105.16-12.52 105.16-10.25Q105.16-7.97 106.44-6.12Q107.73-4.27 111-4.27Q117.26-4.27 122.67-8.54Q128.07-12.81 133.34-21.84Q138.61-30.88 144.30-45.40L149.71-43.55Q143.59-27.18 137.47-16.93Q131.35-6.69 124.02-1.92Q116.69 2.85 107.16 2.85M45.40 2.85Q26.90 2.85 18.07-9.61Q9.25-22.06 9.25-43.40Q9.25-59.77 15.44-75.78Q21.63-91.79 31.81-104.88Q41.98-117.97 54.22-125.87Q66.46-133.77 78.55-133.77Q88.94-133.77 94.85-128.22Q100.75-122.67 103.24-113.35Q105.73-104.03 105.73-92.64Q105.73-82.82 103.67-71.94Q101.61-61.05 97.76-50.38Q93.92-39.70 88.51-30.10Q83.11-20.49 76.35-13.09Q69.59-5.69 61.83-1.42Q54.08 2.85 45.40 2.85M49.52-5.41Q57.49-5.41 65.03-10.74Q72.58-16.08 79.12-25.05Q85.67-34.01 90.65-45.32Q95.63-56.64 98.40-68.73Q101.18-80.83 101.18-92.21Q101.18-102.60 99.19-110.29Q97.19-117.97 92.93-122.17Q88.66-126.37 81.68-126.37Q74.28-126.37 67.03-120.25Q59.77-114.13 53.29-104.03Q46.82-93.92 41.77-81.54Q36.71-69.16 33.87-56.50Q31.02-43.83 31.02-32.73Q31.02-19.21 35.72-12.31Q40.41-5.41 49.52-5.41" fill="#F4F1EA"/><path d="M185 0L162.51 0L193.68-125.37L171.90-125.37L171.90-130.92L216.30-130.92L185 0M195.24-43.40L191.97-43.40Q194.53-54.93 198.52-67.45Q202.50-79.98 207.77-91.72Q213.03-103.46 219.51-112.92Q225.98-122.38 233.45-128Q240.92-133.62 249.18-133.62Q257.86-133.62 262.77-128.93Q267.68-124.23 267.68-117.12Q267.68-110.57 263.98-106.02Q260.28-101.46 253.73-101.46Q247.61-101.46 243.56-105.16Q239.50-108.86 239.50-114.84Q239.50-120.53 243.34-124.52Q247.18-128.50 253.87-128.50Q259.85-128.50 263.62-125.51Q267.39-122.52 267.39-117.12L261.84-117.12Q261.84-121.67 258.64-124.94Q255.44-128.22 249.46-128.22Q241.78-128.22 234.73-122.74Q227.69-117.26 221.64-108.08Q215.59-98.90 210.54-87.73Q205.49-76.56 201.58-65.03Q197.66-53.51 195.24-43.40" fill="#F4F1EA"/><path d="M319.76 2.85Q301.26 2.85 292.51-9.61Q283.76-22.06 283.76-43.40Q283.76-59.77 289.95-75.78Q296.14-91.79 306.31-104.88Q316.49-117.97 328.73-125.87Q340.96-133.77 353.06-133.77Q363.59-133.77 369.50-128.07Q375.40-122.38 377.82-113.06Q380.24-103.74 380.24-92.64Q380.24-82.82 378.18-71.94Q376.11-61.05 372.20-50.38Q368.29-39.70 362.88-30.10Q357.47-20.49 350.71-13.09Q343.95-5.69 336.20-1.42Q328.44 2.85 319.76 2.85M324.03-5.41Q332-5.41 339.54-10.74Q347.08-16.08 353.63-25.05Q360.17-34.01 365.16-45.32Q370.14-56.64 372.91-68.73Q375.69-80.83 375.69-92.21Q375.69-102.60 373.69-110.29Q371.70-117.97 367.43-122.17Q363.16-126.37 356.19-126.37Q348.79-126.37 341.46-120.32Q334.13-114.27 327.66-104.10Q321.18-93.92 316.13-81.61Q311.08-69.30 308.23-56.57Q305.39-43.83 305.39-32.73Q305.39-19.21 310.37-12.31Q315.35-5.41 324.03-5.41M381.66 2.85Q371.70 2.85 367.01-2.56Q362.31-7.97 362.31-16.51Q362.31-18.93 362.45-20.85Q362.59-22.77 362.88-24.19L367.01-47.10L374.26-69.16L378.39-95.06L387.07-130.92L411.12-130.92L380.24-14.80Q379.67-12.67 379.67-10.25Q379.67-7.83 381.02-6.05Q382.37-4.27 385.51-4.27Q391.77-4.27 397.17-8.54Q402.58-12.81 407.85-21.84Q413.11-30.88 418.80-45.40L424.21-43.55Q418.09-27.18 411.90-16.93Q405.71-6.69 398.45-1.92Q391.20 2.85 381.66 2.85" fill="#F4F1EA"/><path d="M447.12 71.15L424.35 71.15L477.01-125.37L457.94-125.37L457.94-130.92L497.50-130.92L486.26-82.96L479.85-60.62L478.15-46.11L447.12 71.15M471.88 71.15L403.72 71.15L403.72 65.60L471.88 65.60L471.88 71.15M498.35-4.55Q505.75-4.55 513.08-10.60Q520.41-16.65 526.89-26.82Q533.36-37 538.41-49.45Q543.46-61.90 546.31-74.78Q549.16-87.66 549.16-98.90Q549.16-111.43 544.53-118.47Q539.91-125.51 530.66-125.51Q522.83-125.51 515.22-120.18Q507.60-114.84 501.06-105.88Q494.51-96.91 489.53-85.60Q484.55-74.28 481.77-62.19Q479-50.09 479-38.71Q479-23.20 483.62-13.87Q488.25-4.55 498.35-4.55M501.63 2.85Q491.10 2.85 485.19-2.85Q479.28-8.54 476.87-17.93Q474.45-27.32 474.45-38.28Q474.45-48.10 476.51-58.99Q478.57-69.87 482.42-80.54Q486.26-91.22 491.66-100.82Q497.07-110.43 503.83-117.83Q510.59-125.23 518.42-129.50Q526.25-133.77 534.78-133.77Q553.28-133.77 562.11-121.32Q570.93-108.86 570.93-87.52Q570.93-71.15 564.74-55.14Q558.55-39.13 548.30-26.04Q538.06-12.95 525.82-5.05Q513.58 2.85 501.63 2.85" fill="#F4F1EA"/><path d="M639.24 2.85Q625.57 2.85 616.18-2.92Q606.79-8.68 601.95-18.93Q597.11-29.17 597.11-42.69Q597.11-59.06 603.09-75.21Q609.07-91.36 619.88-104.59Q630.70-117.83 645.28-125.80Q659.87-133.77 676.95-133.77Q692.32-133.77 700.78-126.15Q709.25-118.54 709.25-107.30Q709.25-95.63 701.28-86.45Q693.31-77.27 680.01-70.87Q666.70-64.46 650.69-60.69Q634.68-56.92 618.46-55.78L618.46-60.62Q630.55-61.48 641.23-63.82Q651.90-66.17 660.51-70.16Q669.12-74.14 675.31-79.98Q681.50-85.81 684.84-93.57Q688.19-101.32 688.19-111.28Q688.19-117.97 685.13-123.02Q682.07-128.07 674.95-128.07Q666.84-128.07 659.51-123.52Q652.19-118.97 645.85-111.07Q639.52-103.17 634.40-93.21Q629.27-83.25 625.65-72.22Q622.02-61.19 620.10-50.30Q618.17-39.42 618.17-29.88Q618.17-15.65 624.79-10.03Q631.41-4.41 641.37-4.41Q652.75-4.41 662.22-8.97Q671.68-13.52 679.37-21.49Q687.05-29.46 692.88-39.70L697.87-36.71Q692.32-25.90 683.85-16.93Q675.38-7.97 664.21-2.56Q653.04 2.85 639.24 2.85" fill="#F4F1EA"/></g></svg>
