<svg width="1024" height="1024" viewBox="0 0 1024 1024" xmlns="http://www.w3.org/2000/svg"><rect width="1024" height="1024" fill="#141312"/><g transform="translate(309.71,785.71)"><path d="M258.17 6.86Q234.17 6.86 222.86-6.17Q211.54-19.20 211.54-39.77Q211.54-42.51 211.71-47.66Q211.89-52.80 212.91-58.29L222.86-113.49L245.14-170.06L246.17-211.54L323.66-500.91L267.09-500.91L267.09-514.29L382.29-514.29L254.74-35.66Q253.37-30.17 253.37-24.69Q253.37-19.20 256.46-14.74Q259.54-10.29 267.43-10.29Q282.51-10.29 295.54-20.57Q308.57-30.86 321.26-52.63Q333.94-74.40 347.66-109.37L360.69-104.91Q345.94-65.49 331.20-40.80Q316.46-16.11 298.80-4.63Q281.14 6.86 258.17 6.86M109.37 6.86Q64.80 6.86 43.54-23.14Q22.29-53.14 22.29-104.57Q22.29-144 37.20-182.57Q52.11-221.14 76.63-252.69Q101.14-284.23 130.63-303.26Q160.11-322.29 189.26-322.29Q214.29-322.29 228.51-308.91Q242.74-295.54 248.74-273.09Q254.74-250.63 254.74-223.20Q254.74-199.54 249.77-173.31Q244.80-147.09 235.54-121.37Q226.29-95.66 213.26-72.51Q200.23-49.37 183.94-31.54Q167.66-13.71 148.97-3.43Q130.29 6.86 109.37 6.86M119.31-13.03Q138.51-13.03 156.69-25.89Q174.86-38.74 190.63-60.34Q206.40-81.94 218.40-109.20Q230.40-136.46 237.09-165.60Q243.77-194.74 243.77-222.17Q243.77-247.20 238.97-265.71Q234.17-284.23 223.89-294.34Q213.60-304.46 196.80-304.46Q178.97-304.46 161.49-289.71Q144-274.97 128.40-250.63Q112.80-226.29 100.63-196.46Q88.46-166.63 81.60-136.11Q74.74-105.60 74.74-78.86Q74.74-46.29 86.06-29.66Q97.37-13.03 119.31-13.03" fill="#F4F1EA"/></g></svg>
